<svg width="170" height="70" viewBox="0 0 170 70" fill="none" xmlns="http://www.w3.org/2000/svg">
<rect width="70" height="70" rx="12" fill="#003F66"/>
<path opacity="0.1" d="M23.5859 25.2041L20.0849 43.2561C19.5388 46.072 21.6956 48.6871 24.5638 48.6871H28.1564H41.8435H45.4362C48.3043 48.6871 50.4612 46.0718 49.9151 43.2561L46.4139 25.2041C46.4087 25.1763 46.4036 25.1516 46.3972 25.1239C46.2378 24.4267 43.8054 14.4693 35 14.4693C26.1947 14.4693 23.7621 24.4267 23.6026 25.1239C23.5963 25.1516 23.5913 25.1763 23.5859 25.2041Z" fill="white"/>
<path d="M28.1564 48.6871C28.1564 48.6871 28.1564 55.5307 35.1058 55.5307C42.0554 55.5307 42.0554 48.6871 42.0554 48.6871" stroke="white" stroke-width="5" stroke-linejoin="round"/>
<path d="M23.5859 25.2041L20.0849 43.2561C19.5388 46.072 21.6956 48.6871 24.5638 48.6871H28.1564H41.8435H45.4362C48.3043 48.6871 50.4612 46.0718 49.9151 43.2561L46.4139 25.2041C46.4087 25.1763 46.4036 25.1516 46.3972 25.1239C46.2378 24.4267 43.8054 14.4693 35 14.4693C26.1947 14.4693 23.7621 24.4267 23.6026 25.1239C23.5963 25.1516 23.5913 25.1763 23.5859 25.2041Z" stroke="white" stroke-width="5" stroke-linejoin="round"/>
<rect x="100" width="70" height="70" rx="12" fill="#FF7757"/>
<path d="M144.375 8.75C141.74 8.74933 139.141 9.36593 136.787 10.5504C134.433 11.7349 132.39 13.4543 130.82 15.5708C129.25 17.6874 128.198 20.1422 127.748 22.7386C127.298 25.3349 127.462 28.0007 128.228 30.5221L108.75 50V61.25H120L139.478 41.7721C141.799 42.4769 144.245 42.6729 146.648 42.3469C149.052 42.0209 151.357 41.1805 153.407 39.8829C155.456 38.5854 157.202 36.8612 158.525 34.8279C159.848 32.7946 160.717 30.5001 161.073 28.1006C161.429 25.701 161.263 23.253 160.587 20.9233C159.911 18.5936 158.741 16.437 157.156 14.6005C155.572 12.764 153.609 11.2907 151.404 10.2811C149.198 9.27145 146.801 8.74923 144.375 8.75ZM144.375 38.75C143.084 38.7492 141.8 38.5583 140.565 38.1834L138.414 37.5312L136.826 39.1198L130.861 45.0845L128.276 42.5L125.625 45.1514L128.21 47.7363L125.236 50.7101L122.651 48.125L120 50.7764L122.585 53.3613L118.447 57.5H112.5V51.5532L130.879 33.1739L132.468 31.5851L131.817 29.435C131.015 26.7931 131.067 23.9657 131.965 21.3551C132.864 18.7445 134.562 16.4836 136.819 14.894C139.076 13.3044 141.777 12.467 144.538 12.501C147.299 12.535 149.978 13.4386 152.196 15.0833C154.413 16.7281 156.055 19.0301 156.889 21.662C157.722 24.294 157.705 27.1217 156.839 29.7431C155.972 32.3645 154.302 34.646 152.064 36.263C149.826 37.88 147.136 38.7503 144.375 38.75Z" fill="white"/>
<path d="M146.25 27.5C148.321 27.5 150 25.8211 150 23.75C150 21.6789 148.321 20 146.25 20C144.179 20 142.5 21.6789 142.5 23.75C142.5 25.8211 144.179 27.5 146.25 27.5Z" fill="white"/>
</svg>
