<svg width="37" height="37" viewBox="0 0 37 37" fill="none" xmlns="http://www.w3.org/2000/svg">
<g clip-path="url(#clip0_1_82)">
<path d="M6.59511 6.40546C6.31601 6.96183 6.17874 7.64818 5.9042 9.02088L4.98241 13.6298C4.39875 16.5482 6.63087 19.2709 9.60698 19.2709C12.0299 19.2709 14.0586 17.4349 14.2997 15.024L14.4061 13.9601C14.1547 16.8101 16.401 19.2709 19.2705 19.2709C22.1595 19.2709 24.4169 16.7765 24.1294 13.9019L24.2419 15.024C24.4831 17.4349 26.5117 19.2709 28.9348 19.2709C31.9108 19.2709 34.143 16.5482 33.5593 13.6298L32.6375 9.02088C32.363 7.64821 32.2256 6.96183 31.9466 6.40546C31.3584 5.2331 30.3002 4.36559 29.0353 4.01882C28.435 3.85425 27.735 3.85425 26.3352 3.85425H23.1247H12.2065C10.8066 3.85425 10.1067 3.85425 9.50635 4.01882C8.24143 4.36559 7.18321 5.2331 6.59511 6.40546Z" fill="#003F66"/>
<path d="M28.9348 21.5834C30.1945 21.5834 31.3649 21.256 32.375 20.6876V22.3543C32.375 28.1682 32.375 31.0752 30.5688 32.8814C29.1149 34.3353 26.9477 34.6189 23.125 34.6742V29.2918C23.125 27.8509 23.125 27.1305 22.8151 26.5939C22.6123 26.2424 22.3203 25.9504 21.9688 25.7475C21.4321 25.4376 20.7117 25.4376 19.2709 25.4376C17.83 25.4376 17.1096 25.4376 16.5729 25.7475C16.2214 25.9504 15.9295 26.2424 15.7265 26.5939C15.4167 27.1305 15.4167 27.8509 15.4167 29.2918V34.6742C11.594 34.6189 9.42679 34.3353 7.97286 32.8814C6.16669 31.0752 6.16669 28.1682 6.16669 22.3543V20.6876C7.17685 21.256 8.3472 21.5834 9.60702 21.5834C11.4525 21.5834 13.1445 20.8687 14.4059 19.6901C15.6814 20.8621 17.3846 21.5834 19.2705 21.5834C21.1566 21.5834 22.86 20.8619 24.1356 19.6898C25.397 20.8686 27.0891 21.5834 28.9348 21.5834Z" fill="#003F66"/>
</g>
<defs>
<clipPath id="clip0_1_82">
<rect width="37" height="37" fill="white"/>
</clipPath>
</defs>
</svg>
