<?xml version="1.0" encoding="UTF-8" standalone="no"?>
<svg
   id="Layer_2"
   data-name="Layer 2"
   viewBox="0 0 278.04142 88.097582"
   version="1.1"
   sodipodi:docname="Lamp.svg"
   inkscape:version="1.4 (86a8ad7, 2024-10-11)"
   width="278.04141"
   height="88.09758"
   xmlns:inkscape="http://www.inkscape.org/namespaces/inkscape"
   xmlns:sodipodi="http://sodipodi.sourceforge.net/DTD/sodipodi-0.dtd"
   xmlns="http://www.w3.org/2000/svg"
   xmlns:svg="http://www.w3.org/2000/svg">
  <sodipodi:namedview
     id="namedview27"
     pagecolor="#ffffff"
     bordercolor="#000000"
     borderopacity="0.25"
     inkscape:showpageshadow="2"
     inkscape:pageopacity="0.0"
     inkscape:pagecheckerboard="true"
     inkscape:deskcolor="#d1d1d1"
     inkscape:zoom="2.4529249"
     inkscape:cx="126.58357"
     inkscape:cy="-48.71735"
     inkscape:window-width="1920"
     inkscape:window-height="1046"
     inkscape:window-x="-11"
     inkscape:window-y="-11"
     inkscape:window-maximized="1"
     inkscape:current-layer="Layer_1-2" />
  <defs
     id="defs1">
    <style
       id="style1">
      .cls-1, .cls-2, .cls-3, .cls-4, .cls-5, .cls-6 {
        fill: #17315b;
      }

      .cls-1, .cls-7, .cls-6 {
        font-family: JunigardenSerifPERSONALUSE-Regular, 'Junigarden Serif PERSONAL USE';
      }

      .cls-1, .cls-5 {
        font-size: 63.49px;
      }

      .cls-8 {
        letter-spacing: 0em;
      }

      .cls-9 {
        stroke-width: 4px;
      }

      .cls-9, .cls-10 {
        fill: none;
        stroke: #e8db9e;
        stroke-miterlimit: 10;
      }

      .cls-2 {
        font-size: 60.34px;
      }

      .cls-2, .cls-3, .cls-4, .cls-5 {
        font-family: JunigardenSwashPERSONALUSE-Regular, 'Junigarden Swash PERSONAL USE';
      }

      .cls-11 {
        fill: #217b94;
        stroke: #ffdc81;
      }

      .cls-12 {
        fill: #e8db9e;
        stroke-width: 0px;
      }

      .cls-7 {
        font-size: 53.46px;
      }

      .cls-3 {
        font-size: 55px;
      }

      .cls-4 {
        font-size: 64.24px;
      }

      .cls-13 {
        letter-spacing: 0em;
      }

      .cls-14 {
        letter-spacing: 0em;
      }

      .cls-10 {
        stroke-width: 5px;
      }

      .cls-15 {
        letter-spacing: -.05em;
      }

      .cls-6 {
        font-size: 61.82px;
      }
    </style>
  </defs>
  <g
     id="Layer_1-2"
     data-name="Layer 1"
     style="display:inline"
     transform="translate(-224.92348,-576.22234)">
    <g
       id="text11"
       style="font-size:55px;font-family:JunigardenSwashPERSONALUSE-Regular, 'Junigarden Swash PERSONAL USE';fill:#ffffff"
       class="cls-3"
       aria-label="trip">
      <path
         style="letter-spacing:0em"
         d="m 261.535,618.755 c 5.17,0 7.04,-3.465 7.205,-8.195 0,-0.55 -0.275,-0.825 -0.825,-0.825 -0.55,0 -0.88,0.275 -0.99,0.825 -0.33,1.43 -1.1,2.09 -2.255,2.09 -1.65,0 -2.42,-1.265 -2.42,-5.39 v -20.35 c 12.65,-0.88 25.74,-1.045 28.765,2.97 0.715,0.935 1.65,0.715 1.815,-0.385 0.33,-2.2 -0.275,-5.28 -5.83,-6.93 -5.225,-1.54 -15.345,-1.32 -24.75,-0.22 v -3.025 c 0,-1.1 -0.99,-1.375 -1.925,-0.715 -1.375,0.99 -3.85,3.96 -9.35,5.665 l -1.21,0.275 c -3.96,0.99 -7.26,1.375 -11.55,1.375 -1.21,0 -4.015,-0.33 -4.895,-2.255 -0.825,-1.815 1.705,-3.685 4.675,-1.595 0.22,0.165 0.605,0.055 0.715,-0.33 0.165,-0.44 -0.11,-0.66 -0.33,-0.825 -3.905,-2.97 -7.205,-3.63 -10.285,-2.255 -2.75,1.21 -3.85,3.41 -2.75,5.885 1.65,3.685 6.655,4.4 12.87,4.4 2.915,0 8.965,-0.66 15.95,-1.32 v 22.935 c 0,5.17 2.53,8.195 7.37,8.195 z"
         id="path1" />
      <path
         d="m 270.66501,618.37 h 13.97 c 0.385,0 0.605,-0.22 0.605,-0.605 0,-0.385 -0.165,-0.55 -0.55,-0.605 -1.925,-0.33 -2.97,-2.09 -2.97,-4.29 v -12.595 c 1.43,-1.32 3.52,-1.705 4.84,-1.705 1.76,0 2.805,0.66 3.575,1.54 0.605,0.715 0.99,0.66 1.045,-0.22 l 0.275,-8.03 c 0,-0.55 -0.33,-0.935 -0.825,-0.935 -3.575,0 -7.205,3.795 -8.91,6.6 v -5.72 c 0,-0.44 -0.275,-0.715 -0.715,-0.715 -0.44,0 -0.935,0.11 -1.43,0.275 l -9.24,3.3 c -0.385,0.165 -0.55,0.385 -0.44,0.77 0.11,0.385 0.33,0.55 0.77,0.55 2.365,-0.275 2.97,1.155 2.97,3.575 v 13.31 c 0,2.2 -1.1,3.96 -2.97,4.29 -0.44,0.055 -0.605,0.22 -0.605,0.605 0,0.385 0.22,0.605 0.605,0.605 z m 22.44005,0 h 13.97 c 0.385,0 0.605,-0.22 0.605,-0.605 0,-0.385 -0.165,-0.55 -0.605,-0.605 -1.87,-0.33 -2.97,-2.09 -2.97,-4.29 v -21.065 c 0,-0.44 -0.22,-0.715 -0.66,-0.715 -0.495,0 -0.99,0.11 -1.43,0.275 l -9.24,3.3 c -0.385,0.165 -0.55,0.385 -0.44,0.77 0.11,0.385 0.33,0.55 0.77,0.55 2.365,-0.275 2.915,1.155 2.915,3.575 v 13.31 c 0,2.2 -1.045,3.96 -2.915,4.29 -0.44,0.055 -0.605,0.22 -0.605,0.605 0,0.385 0.22,0.605 0.605,0.605 z m 6.765,-28.765 c 2.035,0 5.005,-0.99 5.005,-5.06 0,-2.915 -2.035,-5.06 -5.005,-5.06 -3.025,0 -5.005,2.09 -5.005,5.06 0,3.025 1.98,5.06 5.005,5.06 z m 9.73496,42.46 h 14.025 c 0.385,0 0.605,-0.22 0.605,-0.605 0,-0.385 -0.165,-0.55 -0.605,-0.605 -1.87,-0.33 -2.97,-2.09 -2.97,-4.29 V 615.95 c 1.485,1.87 3.685,2.97 6.93,2.97 7.04,0 11.88,-5.335 11.88,-14.025 0,-8.525 -4.675,-13.805 -11.22,-13.805 -3.355,0 -5.83,1.375 -7.59,3.245 v -2.53 c 0,-0.44 -0.275,-0.715 -0.715,-0.715 -0.44,0 -0.935,0.11 -1.43,0.275 l -9.24,3.3 c -0.385,0.165 -0.55,0.385 -0.44,0.77 0.11,0.385 0.33,0.605 0.77,0.55 2.365,-0.22 2.97,1.155 2.97,3.575 v 27.005 c 0,2.2 -1.1,3.96 -2.97,4.29 -0.44,0.055 -0.605,0.22 -0.605,0.605 0,0.385 0.22,0.605 0.605,0.605 z m 15.95,-17.215 c -3.08,0 -4.73,-3.025 -4.895,-8.855 v -4.675 c 0.275,-3.685 2.53,-6.05 5.115,-6.05 3.135,0 4.785,3.355 4.785,9.625 0,6.6 -1.76,9.955 -5.005,9.955 z"
         id="path2" />
    </g>
    <path
       d="m 368.38217,637.63577 c 10.9208,0 17.85872,-3.79016 17.85872,-10.14992 0,-11.94864 -23.25488,-6.23128 -24.53968,-10.85656 -0.38544,-1.41328 1.09208,-3.01928 2.18416,-3.59744 1.54176,0.38544 3.27624,0.57816 5.1392,0.57816 8.6724,0 13.68312,-4.30407 13.68312,-12.20559 0,-3.72592 -1.2848,-6.68096 -3.72592,-8.6724 2.2484,-1.79872 4.56104,-3.91864 4.56104,-6.48824 0,-3.5332 -4.1756,-4.4968 -10.34264,-2.95504 -0.25696,0.0642 -0.3212,0.12848 -0.3212,0.38544 0,0.25696 0.19272,0.38544 0.44968,0.38544 2.2484,0 3.46896,1.606 3.46896,3.98288 0,1.22056 -0.3212,2.18416 -0.83512,2.8908 -1.9272,-0.77088 -4.23984,-1.15632 -6.93792,-1.15632 -8.73664,0 -13.74736,4.36832 -13.74736,11.94864 0,4.75376 1.99144,8.22272 5.65312,10.14991 -3.212,1.606 -6.424,4.88224 -5.7816,7.90152 1.67024,7.96576 21.77736,3.08352 21.77736,9.76448 0,2.76232 -3.212,4.1756 -10.14992,4.1756 -7.3876,0 -23.31912,-4.43256 -28.13712,-5.84584 -12.848,-3.72592 -22.86944,-4.75376 -30.1928,-2.44112 -7.51608,2.44112 -8.92936,8.28696 -8.41544,10.85656 0.25696,1.2848 1.54176,1.67024 1.86296,0.38544 0.83512,-3.27624 10.40688,-6.48824 31.22064,-3.212 9.82872,1.54176 22.03432,4.1756 35.26776,4.1756 z m 0.57816,-28.00863 c -2.63384,0 -4.04712,-3.212 -4.04712,-7.96576 0,-4.75376 1.41328,-7.90152 4.04712,-7.90152 2.63384,0 4.11136,3.14776 4.11136,7.90152 0,4.75376 -1.47752,7.96576 -4.11136,7.96576 z m 34.49684,12.46255 c 3.91864,0 6.93792,-0.77088 8.92936,-1.47752 0.44968,-0.12848 0.70664,-0.3212 0.89936,-1.47752 l 1.34904,-8.41543 c 0.19272,-1.22056 -1.22056,-1.47752 -1.54176,-0.51392 -2.2484,6.03855 -5.7816,7.00215 -8.54392,7.00215 -5.33192,0 -7.32336,-4.30408 -7.32336,-11.17775 h 17.08784 c 1.09208,0 1.606,-0.57816 1.606,-1.606 -0.25696,-9.37904 -5.07496,-14.64672 -14.00432,-14.64672 -9.50752,0 -15.0964,5.97432 -15.0964,16.12424 0,10.14991 5.58888,16.18847 16.63816,16.18847 z m 3.72592,-19.20775 h -9.82872 c 0.51392,-5.1392 2.37688,-8.28696 5.4604,-8.28696 2.82656,0 4.36832,2.50536 4.36832,8.28696 z m 10.08574,18.75807 h 35.0108 c 0.83512,0 1.02784,-1.2848 0.0642,-1.41328 -2.2484,-0.38544 -3.46896,-2.44112 -3.46896,-5.01072 l -0.0642,0.25696 v -17.73023 c 0,-4.68952 -2.95504,-7.96576 -7.83728,-7.96576 -5.01072,0 -8.80088,3.40472 -10.79232,7.32336 v -6.48824 c 0,-0.51392 -0.3212,-0.83512 -0.83512,-0.83512 -0.51392,0 -1.09208,0.12848 -1.67024,0.3212 l -10.79232,3.8544 c -0.9636,0.38544 -0.6424,1.54176 0.38544,1.54176 2.76232,-0.3212 3.46896,1.34904 3.46896,4.1756 v 15.54607 c 0,2.5696 -1.2848,4.62528 -3.46896,5.01072 -1.09208,0.12848 -0.89936,1.41328 0,1.41328 z m 17.53752,-1.2848 c -3.08352,0 -4.62528,-2.18416 -4.62528,-5.1392 v -14.90367 c 1.67024,-1.99144 4.1756,-3.34048 6.03856,-3.34048 2.2484,0 3.14776,1.86296 3.14776,6.68096 v 12.52679 c -0.3212,2.44112 -1.86296,4.1756 -4.56104,4.1756 z m 20.10708,1.2848 h 16.31696 c 0.44968,0 0.70664,-0.25696 0.70664,-0.70664 0,-0.44968 -0.19272,-0.6424 -0.70664,-0.70664 -2.18416,-0.38544 -3.46896,-2.44112 -3.46896,-5.01072 V 590.6121 c 0,-0.51392 -0.25696,-0.83512 -0.77088,-0.83512 -0.57816,0 -1.15632,0.12848 -1.67024,0.3212 l -10.79232,3.8544 c -0.44968,0.19272 -0.6424,0.44968 -0.51392,0.89936 0.12848,0.44968 0.38544,0.6424 0.89936,0.6424 2.76232,-0.3212 3.40472,1.34904 3.40472,4.1756 v 15.54607 c 0,2.5696 -1.22056,4.62528 -3.40472,5.01072 -0.51392,0.0642 -0.70664,0.25696 -0.70664,0.70664 0,0.44968 0.25696,0.70664 0.70664,0.70664 z m 7.90152,-33.59751 c 2.37688,0 5.84584,-1.15632 5.84584,-5.91008 0,-3.40472 -2.37688,-5.91008 -5.84584,-5.91008 -3.5332,0 -5.84584,2.44112 -5.84584,5.91008 0,3.5332 2.31264,5.91008 5.84584,5.91008 z m 27.68739,34.04719 c 3.91864,0 6.93792,-0.77088 8.92936,-1.47752 0.44968,-0.12848 0.70664,-0.3212 0.89936,-1.47752 l 1.34904,-8.41543 c 0.19272,-1.22056 -1.22056,-1.47752 -1.54176,-0.51392 -2.2484,6.03855 -5.7816,7.00215 -8.54392,7.00215 -5.33192,0 -7.32336,-4.30408 -7.32336,-11.17775 h 17.08784 c 1.09208,0 1.606,-0.57816 1.606,-1.606 -0.25696,-9.37904 -5.07496,-14.64672 -14.00432,-14.64672 -9.50752,0 -15.0964,5.97432 -15.0964,16.12424 0,10.14991 5.58888,16.18847 16.63816,16.18847 z m 3.72592,-19.20775 h -9.82872 c 0.51392,-5.1392 2.37688,-8.28696 5.4604,-8.28696 2.82656,0 4.36832,2.50536 4.36832,8.28696 z"
       id="text12"
       style="font-size:64.24px;font-family:JunigardenSwashPERSONALUSE-Regular, 'Junigarden Swash PERSONAL USE';fill:#ffffff"
       class="cls-4"
       aria-label="genie" />
    <path
       class="cls-12"
       d="m 332.8258,657.98789 c 0.8125,2.3125 3.25,4.0625 5.57812,4.07813 0.45313,0 1,-0.125 1.35938,0.0625 0.39062,0.20312 0.84375,0.70312 0.875,1.09375 0.0312,0.3125 -0.5,0.71875 -0.84375,1.01562 -0.15625,0.125 -0.48438,0.0625 -0.71875,0.0625 -5.65625,0 -11.32813,0 -16.98438,0 -0.3125,0 -0.71875,0.0781 -0.9375,-0.0781 -0.35937,-0.26563 -0.84375,-0.71875 -0.8125,-1.04688 0.0469,-0.39062 0.5,-0.89062 0.90625,-1.0625 0.40625,-0.1875 0.96875,-0.0625 1.46875,-0.0625 2.39063,-0.0312 4.6875,-1.71875 5.46875,-4.125 -0.46875,-0.10937 -0.9375,-0.21875 -1.39062,-0.34375 -3.03125,-0.78125 -5.8125,-2.15625 -8.42188,-3.89062 -2.60937,-1.73438 -5.125,-3.35938 -7.8125,-4.85938 -0.76562,-0.42187 -1.53125,-0.875 -2.28125,-1.3125 -2.6875,-1.57812 -5,-3.70312 -7.01562,-6.07812 -0.42188,-0.5 -0.82813,-0.76563 -1,-0.45313 1.625,-1.15625 3.39062,1.0625 6.67187,1.875 3.60938,0.60938 7.3125,0.8125 10.98438,0.96875 1.79687,0.0781 3.60937,-0.3125 5.42187,-0.53125 0.25,-0.0312 0.5625,-0.23437 0.70313,-0.45312 1.78125,-2.92188 2.15625,-3.21875 5.04687,-3.8125 -0.0469,-0.96875 -0.21875,-1.92188 -0.10937,-2.84375 0.0937,-0.75 0.6875,-1.51563 1.51562,-1.32813 0.5625,0.125 1.28125,0.76563 1.4375,1.3125 0.23438,0.84375 0.0625,1.8125 0.0625,2.85938 0.125,0.0156 0.57813,0.0625 1,0.17187 1.82813,0.48438 3.09375,1.625 3.92188,3.3125 0.17187,0.35938 0.60937,0.71875 1.01562,0.76563 1.59375,0.20312 3.1875,0.29687 4.78125,0.42187 2.10938,0.15625 4.125,-0.0937 6.04688,-1.125 1.60937,-0.875 3.40625,-1.14062 5.25,-0.6875 2.875,0.6875 4.42187,3.21875 3.82812,6.35938 -0.5625,3.01562 -2.75,4.60937 -5.75,4.125 -0.9375,-0.15625 -1.84375,-0.46875 -2.75,-0.76563 -1.03125,-0.34375 -2.04687,-0.8125 -3.09375,-1.10937 -1.17187,-0.34375 -2.46875,0.0312 -3.17187,1.03125 -2.51563,3.51562 -5.9375,5.65625 -10.23438,6.46875 v 0.0312 z m 12.73437,-9.82812 c 1.65625,0.67187 3.20313,1.42187 4.82813,1.95312 1.01562,0.32813 2.17187,0.54688 3.20312,0.40625 0.76563,-0.10937 1.6875,-0.70312 2.07813,-1.375 0.89062,-1.48437 0.59375,-3.09375 -0.35938,-4.5 -0.89062,-1.3125 -2.26562,-1.46875 -3.70312,-1.1875 -2.875,0.5625 -4.48438,2.70313 -6.04688,4.70313 z"
       id="path12"
       style="fill:#f88c33;fill-opacity:1" />
  </g>
</svg>
