<?xml version="1.0" encoding="UTF-8" standalone="no"?>
<svg
   id="Layer_2"
   data-name="Layer 2"
   viewBox="0 0 278.04142 88.097582"
   version="1.1"
   sodipodi:docname="TGlogo.svg"
   inkscape:version="1.4 (86a8ad7, 2024-10-11)"
   width="278.04141"
   height="88.09758"
   xmlns:inkscape="http://www.inkscape.org/namespaces/inkscape"
   xmlns:sodipodi="http://sodipodi.sourceforge.net/DTD/sodipodi-0.dtd"
   xmlns="http://www.w3.org/2000/svg"
   xmlns:svg="http://www.w3.org/2000/svg">
  <sodipodi:namedview
     id="namedview27"
     pagecolor="#ffffff"
     bordercolor="#000000"
     borderopacity="0.25"
     inkscape:showpageshadow="2"
     inkscape:pageopacity="0.0"
     inkscape:pagecheckerboard="true"
     inkscape:deskcolor="#d1d1d1"
     inkscape:zoom="1.7344798"
     inkscape:cx="123.09166"
     inkscape:cy="15.854898"
     inkscape:window-width="1920"
     inkscape:window-height="1046"
     inkscape:window-x="-11"
     inkscape:window-y="-11"
     inkscape:window-maximized="1"
     inkscape:current-layer="Layer_1-2" />
  <defs
     id="defs1">
    <style
       id="style1">
      .cls-1, .cls-2, .cls-3, .cls-4, .cls-5, .cls-6 {
        fill: #17315b;
      }

      .cls-1, .cls-7, .cls-6 {
        font-family: JunigardenSerifPERSONALUSE-Regular, 'Junigarden Serif PERSONAL USE';
      }

      .cls-1, .cls-5 {
        font-size: 63.49px;
      }

      .cls-8 {
        letter-spacing: 0em;
      }

      .cls-9 {
        stroke-width: 4px;
      }

      .cls-9, .cls-10 {
        fill: none;
        stroke: #e8db9e;
        stroke-miterlimit: 10;
      }

      .cls-2 {
        font-size: 60.34px;
      }

      .cls-2, .cls-3, .cls-4, .cls-5 {
        font-family: JunigardenSwashPERSONALUSE-Regular, 'Junigarden Swash PERSONAL USE';
      }

      .cls-11 {
        fill: #217b94;
        stroke: #ffdc81;
      }

      .cls-12 {
        fill: #e8db9e;
        stroke-width: 0px;
      }

      .cls-7 {
        font-size: 53.46px;
      }

      .cls-3 {
        font-size: 55px;
      }

      .cls-4 {
        font-size: 64.24px;
      }

      .cls-13 {
        letter-spacing: 0em;
      }

      .cls-14 {
        letter-spacing: 0em;
      }

      .cls-10 {
        stroke-width: 5px;
      }

      .cls-15 {
        letter-spacing: -.05em;
      }

      .cls-6 {
        font-size: 61.82px;
      }
    </style>
  </defs>
  <g
     id="Layer_1-2"
     data-name="Layer 1"
     style="display:inline"
     transform="translate(-224.92348,-576.22234)">
    <text
       class="cls-3"
       id="text11"
       style="fill:#ffffff;fill-opacity:1"
       x="251.69"
       y="618.37"><tspan
         class="cls-13"
         x="251.69"
         y="618.37"
         id="tspan10"
         style="fill:#ffffff;fill-opacity:1">t</tspan><tspan
         x="269.29001"
         y="618.37"
         id="tspan11"
         style="fill:#ffffff;fill-opacity:1">rip</tspan></text>
    <text
       class="cls-4"
       id="text12"
       style="fill:#ffffff;fill-opacity:1"
       x="353.35001"
       y="621.64001"><tspan
         x="353.35001"
         y="621.64001"
         id="tspan12"
         style="fill:#ffffff;fill-opacity:1">genie</tspan></text>
    <path
       class="cls-12"
       d="m 332.8258,657.98789 c 0.8125,2.3125 3.25,4.0625 5.57812,4.07813 0.45313,0 1,-0.125 1.35938,0.0625 0.39062,0.20312 0.84375,0.70312 0.875,1.09375 0.0312,0.3125 -0.5,0.71875 -0.84375,1.01562 -0.15625,0.125 -0.48438,0.0625 -0.71875,0.0625 -5.65625,0 -11.32813,0 -16.98438,0 -0.3125,0 -0.71875,0.0781 -0.9375,-0.0781 -0.35937,-0.26563 -0.84375,-0.71875 -0.8125,-1.04688 0.0469,-0.39062 0.5,-0.89062 0.90625,-1.0625 0.40625,-0.1875 0.96875,-0.0625 1.46875,-0.0625 2.39063,-0.0312 4.6875,-1.71875 5.46875,-4.125 -0.46875,-0.10937 -0.9375,-0.21875 -1.39062,-0.34375 -3.03125,-0.78125 -5.8125,-2.15625 -8.42188,-3.89062 -2.60937,-1.73438 -5.125,-3.35938 -7.8125,-4.85938 -0.76562,-0.42187 -1.53125,-0.875 -2.28125,-1.3125 -2.6875,-1.57812 -5,-3.70312 -7.01562,-6.07812 -0.42188,-0.5 -0.82813,-0.76563 -1,-0.45313 1.625,-1.15625 3.39062,1.0625 6.67187,1.875 3.60938,0.60938 7.3125,0.8125 10.98438,0.96875 1.79687,0.0781 3.60937,-0.3125 5.42187,-0.53125 0.25,-0.0312 0.5625,-0.23437 0.70313,-0.45312 1.78125,-2.92188 2.15625,-3.21875 5.04687,-3.8125 -0.0469,-0.96875 -0.21875,-1.92188 -0.10937,-2.84375 0.0937,-0.75 0.6875,-1.51563 1.51562,-1.32813 0.5625,0.125 1.28125,0.76563 1.4375,1.3125 0.23438,0.84375 0.0625,1.8125 0.0625,2.85938 0.125,0.0156 0.57813,0.0625 1,0.17187 1.82813,0.48438 3.09375,1.625 3.92188,3.3125 0.17187,0.35938 0.60937,0.71875 1.01562,0.76563 1.59375,0.20312 3.1875,0.29687 4.78125,0.42187 2.10938,0.15625 4.125,-0.0937 6.04688,-1.125 1.60937,-0.875 3.40625,-1.14062 5.25,-0.6875 2.875,0.6875 4.42187,3.21875 3.82812,6.35938 -0.5625,3.01562 -2.75,4.60937 -5.75,4.125 -0.9375,-0.15625 -1.84375,-0.46875 -2.75,-0.76563 -1.03125,-0.34375 -2.04687,-0.8125 -3.09375,-1.10937 -1.17187,-0.34375 -2.46875,0.0312 -3.17187,1.03125 -2.51563,3.51562 -5.9375,5.65625 -10.23438,6.46875 v 0.0312 z m 12.73437,-9.82812 c 1.65625,0.67187 3.20313,1.42187 4.82813,1.95312 1.01562,0.32813 2.17187,0.54688 3.20312,0.40625 0.76563,-0.10937 1.6875,-0.70312 2.07813,-1.375 0.89062,-1.48437 0.59375,-3.09375 -0.35938,-4.5 -0.89062,-1.3125 -2.26562,-1.46875 -3.70312,-1.1875 -2.875,0.5625 -4.48438,2.70313 -6.04688,4.70313 z"
       id="path12"
       style="fill:#f88c33;fill-opacity:1" />
  </g>
</svg>
